<svg width="34" height="32" viewBox="0 0 34 32" fill="none" xmlns="http://www.w3.org/2000/svg">
<path d="M16.9846 10.8752C16.3098 10.8733 15.6413 11.0045 15.0176 11.2612C14.3938 11.5179 13.8271 11.8951 13.35 12.3711C12.873 12.8471 12.495 13.4125 12.2378 14.0347C11.9806 14.6569 11.8493 15.3238 11.8514 15.9968C11.8495 16.6696 11.981 17.3362 12.2383 17.9581C12.4956 18.5801 12.8737 19.1452 13.3507 19.6209C13.8278 20.0965 14.3944 20.4735 15.0181 20.7299C15.6417 20.9864 16.31 21.1173 16.9846 21.1152C17.659 21.1171 18.3271 20.986 18.9506 20.7294C19.574 20.4729 20.1405 20.0959 20.6174 19.6203C21.0943 19.1446 21.4722 18.5796 21.7294 17.9578C21.9866 17.3359 22.118 16.6695 22.1161 15.9968C22.1185 15.3238 21.9873 14.6571 21.7303 14.0348C21.4733 13.4126 21.0954 12.8472 20.6185 12.3712C20.1416 11.8952 19.575 11.518 18.9513 11.2612C18.3277 11.0045 17.6593 10.8733 16.9846 10.8752ZM16.9846 19.2752C16.1124 19.2752 15.276 18.9296 14.6593 18.3145C14.0426 17.6994 13.6961 16.8651 13.6961 15.9952C13.6961 15.1253 14.0426 14.291 14.6593 13.6759C15.276 13.0608 16.1124 12.7152 16.9846 12.7152C17.8567 12.7152 18.6931 13.0608 19.3098 13.6759C19.9265 14.291 20.273 15.1253 20.273 15.9952C20.273 16.8651 19.9265 17.6994 19.3098 18.3145C18.6931 18.9296 17.8567 19.2752 16.9846 19.2752ZM25.0051 7.99999C24.5046 7.50079 23.5887 7.60319 22.9631 8.22719C22.3375 8.85279 22.2364 9.76159 22.7369 10.2624C23.2374 10.7632 24.1517 10.6624 24.7789 10.0368C25.4046 9.41279 25.5056 8.49919 25.0051 7.99999ZM9.19178 21.9664C8.56457 22.5904 8.46351 23.5008 8.96399 24C9.46448 24.4992 10.3788 24.4 11.006 23.7744C11.6332 23.1488 11.7343 22.2368 11.2338 21.7376C10.7333 21.2384 9.81738 21.3408 9.19178 21.9664ZM8.96399 7.99999C8.46351 8.49919 8.56457 9.41279 9.19017 10.0368C9.81738 10.6624 10.7317 10.7616 11.2322 10.2624C11.7327 9.76319 11.6316 8.84959 11.0044 8.22559C10.3804 7.60319 9.46448 7.50079 8.96399 7.99999ZM22.9631 23.7712C23.5887 24.3968 24.503 24.4992 25.0051 24C25.5072 23.5008 25.4046 22.5872 24.7773 21.9616C24.1501 21.336 23.2374 21.2368 22.7353 21.736C22.2332 22.2352 22.3375 23.1472 22.9631 23.7712ZM16.9846 7.99679C17.692 7.99679 18.2679 7.28159 18.2679 6.39679C18.2662 5.51199 17.692 4.79999 16.9846 4.79999C16.2755 4.79999 15.6997 5.51199 15.6997 6.39679C15.6997 7.28159 16.2739 7.99679 16.9846 7.99679ZM16.9846 27.2C17.692 27.2 18.2679 26.4848 18.2679 25.6C18.2679 24.7152 17.6936 24.0032 16.9862 24.0032C16.2771 24.0032 15.7013 24.7152 15.7013 25.6C15.6997 26.4848 16.2739 27.2 16.9846 27.2ZM8.96399 16C8.96399 15.2944 8.24214 14.72 7.35507 14.72C6.46799 14.72 5.75577 15.2944 5.75577 16C5.75577 16.7072 6.46799 17.28 7.35507 17.28C8.24214 17.28 8.96399 16.7072 8.96399 16ZM28.2134 16C28.2134 15.2944 27.4947 14.72 26.6076 14.72C25.7206 14.72 25.0051 15.2944 25.0051 16C25.0051 16.7072 25.7206 17.28 26.6076 17.28C27.4947 17.28 28.2134 16.7072 28.2134 16Z" fill="white"/>
</svg>
